<svg width="32" height="32" viewBox="0 0 32 32" fill="none" xmlns="http://www.w3.org/2000/svg">
<g clip-path="url(#clip0_403_4589)">
<path d="M10.6989 3.8417C12.9326 2.83228 15.4541 2.48576 17.8922 2.80968C20.3683 3.1336 22.7383 4.18822 24.6313 5.80781C26.4486 7.32947 27.8342 9.34831 28.599 11.5781C29.4774 14.1167 29.5455 16.9265 28.7959 19.4877C27.9624 22.3325 26.1949 24.8176 23.7757 26.5461C22.2251 27.65 20.4533 28.408 18.5813 28.7683C15.4011 29.371 12.0239 28.7834 9.26775 27.1111C9.09359 27.0358 8.92701 26.8474 8.72257 26.9303L3.88407 28.1732L5.17131 23.4727C5.24703 23.3069 5.09559 23.1713 5.01987 23.0207C3.55848 20.806 2.80128 18.1393 2.877 15.4877C2.95272 10.0639 6.43583 5.77014 10.6761 3.81157" fill="#242424"/>
<path d="M10.6989 3.8417C12.9326 2.83228 15.4541 2.48576 17.8922 2.80968C20.3683 3.1336 22.7383 4.18822 24.6313 5.80781C26.4486 7.32947 27.8342 9.34831 28.599 11.5781C29.4774 14.1167 29.5455 16.9265 28.7959 19.4877C27.9624 22.3325 26.1949 24.8176 23.7757 26.5461C22.2251 27.65 20.4533 28.408 18.5813 28.7683C15.4011 29.371 12.0239 28.7834 9.26775 27.1111C9.09359 27.0358 8.92701 26.8474 8.72257 26.9303L3.88407 28.1732L5.17131 23.4727C5.24703 23.3069 5.09559 23.1713 5.01987 23.0207C3.55848 20.806 2.80128 18.1393 2.877 15.4877C2.95272 10.0639 6.43583 5.77014 10.6761 3.81157" fill="#40C351"/>
<path fill-rule="evenodd" clip-rule="evenodd" d="M6.91321 2.89254C10.4115 0.40666 14.9395 -0.542496 19.1798 0.301198C21.9258 0.841762 24.4785 2.09726 26.5776 3.93963C29.5484 6.53059 31.4433 10.129 31.8932 14.0338C32.1944 16.6119 31.8564 19.224 30.9088 21.6421C29.7882 24.5047 27.8043 27.0207 25.2904 28.7985C22.868 30.518 20.0075 31.5232 17.0369 31.6987C14.0638 31.8806 11.0991 31.2281 8.48061 29.8154L0 32L2.23373 23.8644C2.27585 23.7736 2.22035 23.6957 2.16979 23.6248L2.15801 23.6083C0.482254 20.6324 -0.181749 17.1973 0.265019 13.8154C0.861115 9.41992 3.25945 5.466 6.8905 2.89254H6.91321ZM11.381 8.51234C11.7369 8.51987 11.9716 8.83626 12.1079 9.11498C12.3675 9.67457 12.5975 10.244 12.8274 10.8134C12.9998 11.2405 13.1723 11.6676 13.3573 12.0905C13.4481 12.2939 13.5087 12.5199 13.433 12.7383C13.2621 13.2199 12.92 13.5992 12.5804 13.9756C12.4685 14.0997 12.3569 14.2234 12.2518 14.3504C12.1003 14.5237 12.1155 14.7723 12.2366 14.953C13.4008 17.203 15.3953 18.9173 17.802 19.7365C18.0292 19.8344 18.3018 19.8118 18.4608 19.616C18.9148 19.1119 19.3444 18.5865 19.748 18.0416C20.0949 17.5915 20.3967 17.7166 20.8478 17.9036L20.8535 17.906L23.7612 19.2996C23.9883 19.3975 24.2155 19.5632 24.1928 19.8269C24.3442 21.7855 22.5799 23.3071 20.7324 23.3674C15.962 23.0209 12.7061 20.3843 10.3588 17.341C10.3051 17.2667 10.2513 17.1924 10.1974 17.118C9.47476 16.1208 8.73921 15.1057 8.34463 13.921C7.94331 12.8061 7.92817 11.5331 8.4052 10.4333C9.13968 8.96432 9.7833 8.39934 11.4037 8.48974L11.381 8.51234ZM4.5811 9.31821C5.9592 6.91519 8.11722 4.97168 10.6538 3.84173L10.6614 3.87186C12.9027 2.86244 15.4317 2.51593 17.8548 2.83984C20.3451 3.17854 22.686 4.21884 24.6014 5.83797C26.4219 7.37109 27.7927 9.36462 28.5691 11.6082C29.4473 14.1625 29.516 16.9235 28.766 19.5179C27.9325 22.3627 26.165 24.8477 23.7458 26.5763C22.1976 27.6844 20.4248 28.4428 18.5514 28.7985C15.3467 29.4029 12.0306 28.8101 9.23787 27.1337C9.20234 27.1144 9.16648 27.0917 9.13004 27.0687C8.99563 26.9836 8.85353 26.8937 8.69269 26.9529C7.85671 27.1628 7.02275 27.3807 6.18976 27.5983C5.40814 27.8025 4.62738 28.0065 3.84662 28.2034L5.13386 23.5028C5.18202 23.3651 5.10573 23.2464 5.03439 23.1353C5.016 23.1067 4.99794 23.0786 4.98242 23.0508C3.52103 20.8286 2.76383 18.1695 2.83955 15.5179C2.88498 13.3484 3.49074 11.2015 4.5811 9.31821Z" fill="#FCFCFC"/>
</g>
<defs>
<clipPath id="clip0_403_4589">
<rect width="32" height="32" fill="white"/>
</clipPath>
</defs>
</svg>
